<svg
  width="174"
  height="134"
  viewBox="0 0 174 134"
  fill="none"
  xmlns="http://www.w3.org/2000/svg"
>
  <path
    d="M26.024 99.2442H30.355C30.621 99.2442 30.8869 99.3584 31.0769 99.5488C31.2668 99.7391 31.3808 100.006 31.3808 100.272V127.795C31.3808 128.062 31.2668 128.328 31.0769 128.519C30.8869 128.709 30.621 128.823 30.355 128.823H26.024C25.7581 128.823 25.4921 128.709 25.3022 128.519C25.1122 128.328 24.9983 128.062 24.9983 127.795V127.224C24.9983 127.034 24.9603 126.844 24.8463 126.653C24.7323 126.463 24.5803 126.349 24.3904 126.273C24.2004 126.196 24.0105 126.158 23.8205 126.196C23.6306 126.235 23.4406 126.311 23.2886 126.463C21.0472 128.519 18.1598 129.546 14.6646 129.546C12.7271 129.585 10.7895 129.166 9.00393 128.404C7.21834 127.643 5.62271 126.463 4.29301 125.016C1.44367 122.009 0 118.354 0 114.015C0 109.675 1.44367 105.982 4.29301 102.975C5.62271 101.528 7.21834 100.386 9.00393 99.6249C10.7895 98.8635 12.7271 98.4448 14.6646 98.4829C18.1978 98.4829 21.0472 99.5107 23.2886 101.528C23.4406 101.643 23.6306 101.757 23.8205 101.795C24.0105 101.833 24.2004 101.795 24.3904 101.719C24.5803 101.643 24.7323 101.528 24.8463 101.338C24.9603 101.186 24.9983 100.995 24.9983 100.805V100.272C24.9983 100.006 25.1122 99.7391 25.3022 99.5488C25.4921 99.3584 25.7581 99.2442 26.024 99.2442ZM9.00393 120.791C10.7895 122.504 13.183 123.494 15.6524 123.494C18.1218 123.494 20.5153 122.542 22.3009 120.791C23.1747 119.915 23.8585 118.849 24.3144 117.669C24.7703 116.489 24.9983 115.271 24.9603 114.015C24.9983 112.758 24.7703 111.54 24.3144 110.36C23.8585 109.18 23.1747 108.152 22.3009 107.239C20.5153 105.525 18.1218 104.536 15.6524 104.536C13.183 104.536 10.7895 105.487 9.00393 107.239C8.13013 108.114 7.44629 109.18 6.99039 110.36C6.5345 111.54 6.30655 112.758 6.34454 114.015C6.30655 115.271 6.5345 116.489 6.99039 117.669C7.44629 118.849 8.13013 119.877 9.00393 120.791Z"
    fill="white"
  />
  <path
    d="M63.142 87.4434H67.4731C67.625 87.4434 67.739 87.4814 67.853 87.5195C67.9669 87.5576 68.0809 87.6337 68.1949 87.7479C68.3089 87.824 68.3848 87.9382 68.4228 88.0905C68.4608 88.2428 68.4988 88.357 68.4988 88.4712V127.796C68.4988 128.062 68.3848 128.329 68.1949 128.519C68.0049 128.709 67.739 128.823 67.4731 128.823H63.1041C62.8381 128.823 62.5722 128.709 62.3822 128.519C62.1923 128.329 62.0783 128.062 62.0783 127.796V127.225C62.0783 127.034 62.0403 126.844 61.9263 126.654C61.8124 126.501 61.6604 126.349 61.4704 126.273C61.2805 126.197 61.0905 126.159 60.9006 126.197C60.7106 126.235 60.5207 126.311 60.3687 126.463C58.1272 128.519 55.2779 129.547 51.7447 129.547C49.8071 129.585 47.8696 129.166 46.084 128.405C44.2984 127.643 42.7027 126.463 41.3731 125.017C38.5237 122.009 37.0801 118.317 37.0801 114.015C37.0801 109.713 38.5237 105.983 41.3731 102.975C42.7027 101.529 44.2984 100.387 46.084 99.6252C47.8696 98.8638 49.8071 98.4451 51.7447 98.4831C55.2779 98.4831 58.1652 99.511 60.3687 101.529C60.5207 101.643 60.7106 101.757 60.9006 101.795C61.0905 101.833 61.2805 101.795 61.4704 101.719C61.6604 101.643 61.8124 101.529 61.9263 101.338C62.0403 101.186 62.0783 100.996 62.0783 100.805V88.4712C62.0783 88.2047 62.1923 87.9382 62.3822 87.7479C62.6102 87.5195 62.8761 87.4434 63.142 87.4434ZM46.16 120.791C47.9455 122.504 50.339 123.494 52.8084 123.494C55.2779 123.494 57.6713 122.542 59.4569 120.791C60.3307 119.916 61.0145 118.85 61.4704 117.669C61.9263 116.489 62.1543 115.271 62.1163 114.015C62.1543 112.759 61.9263 111.541 61.4704 110.36C61.0145 109.18 60.3307 108.152 59.4569 107.239C57.6713 105.526 55.2779 104.536 52.8084 104.536C50.339 104.536 47.9455 105.488 46.16 107.239C45.2862 108.114 44.6023 109.18 44.1464 110.36C43.6905 111.541 43.4626 112.759 43.5006 114.015C43.4626 115.271 43.6905 116.489 44.1464 117.669C44.6023 118.85 45.2862 119.877 46.16 120.791Z"
    fill="white"
  />
  <path
    d="M82.2887 116.717C82.1367 116.717 81.9468 116.755 81.8328 116.831C81.7188 116.907 81.5669 117.022 81.4529 117.174C81.3769 117.326 81.3009 117.478 81.3009 117.631C81.3009 117.783 81.3009 117.973 81.3769 118.126C81.9088 119.648 82.8966 120.981 84.2263 121.932C85.8979 123.151 87.9874 123.722 90.4188 123.722C93.4581 123.722 95.8516 122.732 97.5232 120.714C97.6752 120.524 97.9031 120.41 98.1311 120.372C98.359 120.334 98.587 120.372 98.8149 120.486L102.31 122.541C102.424 122.618 102.538 122.732 102.614 122.846C102.69 122.96 102.766 123.113 102.766 123.227C102.804 123.379 102.804 123.531 102.766 123.645C102.728 123.798 102.652 123.912 102.576 124.026C99.6887 127.681 95.6236 129.508 90.3429 129.508C85.556 129.508 81.6808 128.023 78.7175 125.092C75.7542 122.161 74.3105 118.43 74.3105 113.938C74.3105 109.522 75.7542 105.83 78.6795 102.86C81.6049 99.8909 85.328 98.4062 89.887 98.4062C94.218 98.4062 97.7512 99.929 100.525 102.936C103.298 105.982 104.666 109.636 104.666 113.976C104.666 114.547 104.628 115.156 104.552 115.727C104.514 115.956 104.4 116.222 104.21 116.374C104.02 116.527 103.792 116.641 103.526 116.641H82.2887V116.717ZM82.2127 111.54H96.9533C97.1053 111.54 97.2573 111.502 97.4092 111.426C97.5612 111.349 97.6752 111.273 97.7512 111.121C97.8271 111.007 97.9031 110.855 97.9411 110.702C97.9791 110.55 97.9791 110.398 97.9411 110.245C97.5232 108.609 96.5734 107.162 95.2437 106.096C93.6861 104.878 91.7485 104.231 89.773 104.269C87.4175 104.269 85.442 104.916 83.8843 106.21C82.6306 107.276 81.6809 108.647 81.225 110.245C81.187 110.398 81.187 110.55 81.187 110.702C81.187 110.855 81.2629 111.007 81.3769 111.121C81.4909 111.235 81.6049 111.349 81.7568 111.426C81.9088 111.502 82.0608 111.54 82.2127 111.54Z"
    fill="white"
  />
  <path
    d="M125.75 98.4824C129.131 98.4824 131.867 99.5483 133.956 101.718C136.046 103.888 137.072 106.857 137.072 110.626V127.757C137.072 128.023 136.958 128.29 136.768 128.48C136.578 128.67 136.312 128.785 136.046 128.785H131.715C131.449 128.785 131.183 128.67 130.993 128.48C130.803 128.29 130.689 128.023 130.689 127.757V111.273C130.689 109.065 130.081 107.39 128.904 106.21C127.726 105.03 126.13 104.421 124.079 104.421C121.837 104.421 120.014 105.106 118.646 106.515C117.278 107.923 116.594 110.055 116.594 112.91V127.719C116.594 127.985 116.48 128.252 116.29 128.442C116.1 128.632 115.835 128.747 115.569 128.747H111.2C110.934 128.747 110.668 128.632 110.478 128.442C110.288 128.252 110.174 127.985 110.174 127.719V100.195C110.174 99.929 110.288 99.6625 110.478 99.4722C110.668 99.2818 110.934 99.1676 111.2 99.1676H115.531C115.797 99.1676 116.062 99.2818 116.252 99.4722C116.442 99.6625 116.556 99.929 116.556 100.195C116.556 100.386 116.594 100.576 116.708 100.767C116.822 100.919 116.974 101.071 117.126 101.147C117.316 101.223 117.506 101.261 117.696 101.223C117.886 101.185 118.076 101.109 118.228 100.995C120.128 99.3199 122.635 98.4824 125.75 98.4824Z"
    fill="white"
  />
  <path
    d="M168.264 99.2433H172.595C172.861 99.2433 173.127 99.3575 173.317 99.5478C173.507 99.7382 173.621 100.005 173.621 100.271V127.794C173.621 128.061 173.507 128.327 173.317 128.518C173.127 128.708 172.861 128.822 172.595 128.822H168.264C167.998 128.822 167.732 128.708 167.542 128.518C167.352 128.327 167.238 128.061 167.238 127.794V127.223C167.238 127.033 167.163 126.843 167.087 126.69C166.973 126.538 166.821 126.386 166.631 126.31C166.441 126.234 166.251 126.196 166.061 126.234C165.871 126.272 165.681 126.348 165.529 126.5C163.287 128.556 160.4 129.584 156.905 129.584C154.967 129.622 153.03 129.203 151.244 128.442C149.459 127.68 147.863 126.5 146.533 125.053C143.646 122.046 142.24 118.353 142.24 114.052C142.24 109.712 143.684 106.019 146.533 103.012C147.863 101.565 149.459 100.423 151.244 99.662C153.03 98.9006 154.967 98.4819 156.905 98.52C160.438 98.52 163.287 99.5478 165.529 101.565C165.681 101.68 165.871 101.794 166.061 101.832C166.251 101.87 166.441 101.832 166.631 101.756C166.821 101.68 166.973 101.565 167.049 101.375C167.163 101.223 167.201 101.032 167.201 100.804V100.271C167.201 100.005 167.314 99.7382 167.504 99.5478C167.732 99.3575 167.998 99.2433 168.264 99.2433ZM151.282 120.79C153.068 122.503 155.461 123.493 157.931 123.493C160.4 123.493 162.794 122.541 164.579 120.79C165.453 119.914 166.137 118.848 166.593 117.668C167.049 116.488 167.276 115.27 167.238 114.014C167.276 112.757 167.049 111.539 166.593 110.359C166.137 109.179 165.453 108.151 164.579 107.238C162.794 105.525 160.4 104.535 157.931 104.535C155.461 104.535 153.068 105.486 151.282 107.238C150.408 108.113 149.725 109.179 149.269 110.359C148.813 111.539 148.585 112.757 148.623 114.014C148.585 115.27 148.813 116.488 149.269 117.668C149.725 118.848 150.408 119.876 151.282 120.79Z"
    fill="white"
  />
  <path
    d="M96.7646 5.71053C93.6874 0.342903 86.8489 -1.48437 81.4922 1.59915C76.1354 4.68269 74.3118 11.535 77.3891 16.9026L107.136 68.523C110.214 73.8906 117.052 75.7179 122.409 72.6344C127.766 69.5509 129.589 62.6986 126.512 57.331L96.7646 5.71053Z"
    fill="url(#paint0_linear_248_202)"
  />
  <path
    d="M107.516 24.6672C97.5243 19.4138 90.8378 26.6468 87.9125 31.0246C87.4566 31.7098 87.0007 32.4331 86.6208 33.1564C86.4308 33.5371 86.3168 33.8036 86.2408 33.8797L82.4037 40.5797L66.4094 68.3314C65.6876 69.5877 64.6998 70.7297 63.5221 71.6053C62.3443 72.4809 61.0146 73.1661 59.609 73.5468C56.7596 74.3081 53.7203 73.9275 51.1369 72.4428C48.5915 70.9581 46.6919 68.5218 45.9321 65.6667C45.1723 62.8115 45.5522 59.7661 47.0339 57.1775L74.6535 9.21155L76.705 5.63314C77.6928 3.92007 79.0985 2.51154 80.7701 1.52177C82.4797 0.531997 84.3793 0.0371094 86.3548 0.0371094H86.7727C88.7483 0.0371094 90.6478 0.570066 92.3574 1.52177C94.067 2.51154 95.4727 3.92007 96.4605 5.63314L107.516 24.6672Z"
    fill="white"
  />
  <defs>
    <linearGradient
      id="paint0_linear_248_202"
      x1="119.208"
      y1="66.486"
      x2="93.933"
      y2="23.6216"
      gradientUnits="userSpaceOnUse"
    >
      <stop stop-color="white" />
      <stop offset="1" stop-color="white" stop-opacity="0" />
    </linearGradient>
  </defs>
</svg>
