<?xml version="1.0" standalone="no"?>
<!DOCTYPE svg PUBLIC "-//W3C//DTD SVG 20010904//EN"
 "http://www.w3.org/TR/2001/REC-SVG-20010904/DTD/svg10.dtd">
<svg version="1.0" xmlns="http://www.w3.org/2000/svg"
 width="200.000000pt" height="200.000000pt" viewBox="0 0 200.000000 200.000000"
 preserveAspectRatio="xMidYMid meet">

<g transform="translate(0.000000,200.000000) scale(0.100000,-0.100000)"
fill="#000000" stroke="none">
<path d="M1880 1899 c-147 -120 -288 -175 -430 -167 -59 4 -95 14 -170 46
-247 106 -510 92 -735 -40 -91 -53 -230 -192 -283 -283 -132 -225 -146 -488
-40 -735 32 -75 42 -111 46 -170 8 -142 -46 -281 -170 -435 l-72 -90 139 125
c287 259 492 455 895 859 401 402 934 965 908 960 -1 0 -41 -32 -88 -70z
m-760 -230 c91 -25 183 -72 216 -111 27 -33 32 -83 10 -113 -13 -18 -15 -17
-57 17 -211 171 -521 155 -713 -38 -162 -161 -203 -412 -100 -617 15 -28 42
-72 62 -96 34 -42 35 -44 17 -57 -27 -20 -78 -17 -109 7 -65 51 -125 207 -133
349 -7 122 13 218 68 330 76 153 243 289 410 334 83 22 240 20 329 -5z m-21
-158 c108 -34 228 -128 214 -168 -8 -26 -633 -651 -655 -656 -43 -12 -135 106
-169 214 -23 73 -25 200 -5 275 42 157 180 297 335 340 72 19 209 17 280 -5z"/>
<path d="M1573 1333 c-20 -30 -21 -90 -8 -288 9 -127 -4 -197 -57 -305 -43
-88 -160 -205 -248 -248 -131 -63 -204 -71 -462 -46 -69 6 -127 -6 -148 -31
-9 -11 -2 -19 39 -39 168 -86 407 -91 584 -12 156 68 295 208 363 363 78 177
74 416 -11 584 -14 27 -27 49 -30 49 -2 0 -13 -12 -22 -27z"/>
<path d="M1431 1246 c-12 -15 -13 -29 -3 -87 33 -189 -8 -330 -133 -454 -122
-122 -276 -168 -448 -134 -54 11 -107 7 -107 -9 0 -14 101 -41 175 -48 149
-13 304 45 415 156 142 142 191 342 132 535 -16 52 -19 56 -31 41z"/>
</g>
</svg>
