<svg width="#currentWidth" height="#currentHeight" viewBox="0 0 138 238" fill="none" xmlns="http://www.w3.org/2000/svg">
<path d="M136.019 160.26C134.249 153.76 130.469 148.04 125.339 143.67C123.359 141.98 121.199 140.38 118.839 138.89C116.839 137.62 114.319 139.49 114.899 141.79L116.319 147.41C118.119 154.55 110.459 160.34 104.079 156.67L86.9293 146.81C75.6593 140.33 61.7993 140.33 50.5293 146.81L33.3793 156.67C26.9993 160.34 19.3393 154.54 21.1393 147.41L22.5993 141.63C23.1793 139.34 20.6693 137.47 18.6693 138.73C16.0493 140.37 13.6693 142.15 11.5093 144.02C6.4593 148.4 2.9493 154.28 1.3093 160.76L1.2493 161C-2.9207 177.56 3.5593 194.97 17.5393 204.78L60.8393 235.15C65.5793 238.47 71.8893 238.47 76.6293 235.15L119.929 204.78C134.119 194.83 140.579 177.04 136.019 160.27V160.26Z" fill="#000"/>
<path d="M134.219 123.74C130.439 92.1599 114.949 60.5199 99.9693 36.2799L122.229 14.0199C127.269 8.97986 123.699 0.359863 116.569 0.359863H68.6293C64.9293 0.359863 61.2193 1.98986 58.7193 5.23986C41.8393 27.2099 8.78932 75.5499 3.01932 123.74C2.49932 128.13 7.64932 130.82 10.9493 127.88C22.4693 117.62 40.4393 110.28 68.6193 110.28C96.7993 110.28 114.759 117.63 126.289 127.88C129.589 130.82 134.739 128.12 134.219 123.74Z" fill="#000"/>
</svg>