<svg width="#currentWidth" height="#currentHeight" viewBox="0 0 16 16" fill="none" xmlns="http://www.w3.org/2000/svg">
<path d="M6.66472 10.9619C6.46372 10.9045 6.24772 10.9502 6.09552 11.0935L6.07812 11.1098C7.47792 11.7285 9.17622 11.4661 10.3216 10.3207C11.4665 9.17582 11.7291 7.47862 11.1115 6.07922C11.1061 6.08502 11.1006 6.09082 11.0951 6.09672C10.9518 6.24882 10.906 6.46472 10.9633 6.66572C11.298 7.84012 11.0043 9.15732 10.0813 10.0804C9.15772 11.004 7.83962 11.2974 6.66472 10.9619Z" fill="#fff"/>
<path d="M11.9081 6.82651C12.2895 8.25691 11.8784 9.79351 10.8353 10.8365C9.7885 11.8834 8.2471 12.2932 6.8127 11.9059C6.2885 11.7642 5.74402 11.8752 5.33789 12.2019C7.3127 13.3806 9.8085 13.0749 11.441 11.4422C13.0726 9.81051 13.3791 7.31611 12.2021 5.34155C11.8772 5.75071 11.7671 6.29811 11.9081 6.82651Z" fill="#fff"/>
<path d="M5.75522 10.0835C5.59389 10.2459 5.33185 10.2461 5.16987 10.0843L5.16684 10.0813C3.8119 8.72639 3.8119 6.52169 5.16681 5.16682C6.5217 3.81188 8.7264 3.81188 10.0814 5.16682L10.0844 5.16985C10.2471 5.33313 10.24 5.59981 10.0764 5.76232C8.6588 7.17069 7.1634 8.66619 5.75522 10.0835ZM5.6024 3.49188C7.1315 2.70193 8.96341 2.91291 10.3261 3.91367C10.6046 4.19258 10.6045 4.64364 10.3258 4.92242L10.3216 4.92654C8.8342 3.43905 6.414 3.43905 4.92649 4.92651C3.4391 6.41389 3.4391 8.83419 4.92656 10.3216C4.92656 10.3216 4.91798 10.3302 4.90303 10.3452C4.62571 10.603 4.1947 10.5997 3.92161 10.3348C2.32884 8.16209 2.88903 4.8937 5.6024 3.49188ZM10.6897 5.58623C11.9678 4.24822 13.8794 2.23261 15.084 0.833984C14.8042 1.10418 14.322 1.49614 13.8204 1.88639C12.8815 2.6168 11.2839 3.06687 10.2239 2.52714C8.075 1.43291 5.37376 1.7834 3.57855 3.57857C1.78338 5.37377 1.43289 8.07499 2.52712 10.2239C3.06686 11.2839 2.61681 12.8815 1.88637 13.8204C1.49615 14.322 1.10422 14.8042 0.833984 15.084L1.61035 14.369L2.05882 13.9668C4.97124 11.3561 7.97351 8.40179 10.6897 5.58623Z" fill="#fff"/>
</svg>