<svg width="#currentWidth" height="#currentHeight" viewBox="0 0 835 339" fill="none" xmlns="http://www.w3.org/2000/svg">
<g clip-path="url(#clip0_6_80)">
<path d="M473.275 102.798C459.87 102.798 449.945 92.1003 449.945 78.6309C449.945 65.1615 459.87 54.5922 473.275 54.5922C486.68 54.5922 496.669 65.1615 496.669 78.6309C496.669 92.1003 486.68 102.798 473.275 102.798ZM473.275 98.4805C484.231 98.4805 491.643 89.7158 491.643 78.6309C491.643 67.546 484.231 58.9101 473.275 58.9101C462.384 58.9101 454.908 67.546 454.908 78.6309C454.908 89.7158 462.384 98.4805 473.275 98.4805Z" fill="#2F2F2F"/>
<path d="M508.573 82.0466V101.832H504.062V67.8683H508.251V74.2485C510.442 70.0594 514.567 67.2238 519.465 67.2238C526.554 67.2238 531.13 71.7351 531.13 79.7909V101.832H526.619V81.3377C526.619 74.8285 523.654 71.155 518.112 71.155C512.827 71.155 508.573 75.7308 508.573 82.0466Z" fill="#2F2F2F"/>
<path d="M379.441 285.094C335.422 285.094 301.138 252.291 301.138 205.309C301.138 160.444 333.729 126.795 378.171 126.795C416.687 126.795 444.199 149.651 454.146 182.665H416.264C411.608 167.216 397.641 155.576 377.324 155.576C352.775 155.576 334.152 173.565 334.152 206.156C334.152 235.361 350.447 257.794 380.922 257.794C403.355 257.794 417.534 244.461 421.767 225.626H377.748V200.019H456.051C457.955 249.54 427.904 285.094 379.441 285.094Z" fill="#2F2F2F"/>
<path d="M577.505 281.919L507.878 175.893V281.919H478.462V129.969H513.169L579.409 230.705V129.969H609.037V281.919H577.505Z" fill="#2F2F2F"/>
<path d="M709.064 285.094C665.256 285.094 631.396 251.233 631.396 205.733C631.396 160.232 665.256 126.795 709.064 126.795C753.083 126.795 787.155 160.232 787.155 205.733C787.155 251.233 753.083 285.094 709.064 285.094ZM709.064 256.312C736.999 256.312 753.929 233.668 753.929 205.733C753.929 177.798 736.999 155.576 709.064 155.576C681.34 155.576 664.41 177.798 664.41 205.733C664.41 233.668 681.34 256.312 709.064 256.312Z" fill="#2F2F2F"/>
<g clip-path="url(#clip1_6_80)">
<path d="M274.722 113.147V54.5922H47.5481V285.288H274.722V169.808L262.439 170.328H224.515C252.832 166.665 274.722 142.468 274.722 113.156V113.147ZM112.997 172.142C114.644 158.282 119.214 145.277 125.025 132.694C132.527 116.466 142.001 101.453 152.673 87.1538C155.218 83.7374 158.282 82.1437 162.562 82.1965C173.383 82.3374 184.214 82.2934 195.035 82.2141C198.091 82.1877 200.53 83.033 201.692 86.0092C202.801 88.8444 201.692 91.1074 199.605 93.1502C194.419 98.222 189.338 103.399 184.029 108.709C192.235 122.119 199.323 135.723 203.937 150.437C206.103 157.34 207.415 164.516 209.035 171.587C209.484 173.542 209.564 175.584 207.494 176.764C205.416 177.962 203.867 176.738 202.291 175.452C192.191 167.167 180.154 164.384 167.536 163.592C157.199 162.949 146.932 163.539 136.912 166.524C130.484 168.435 124.646 171.437 119.337 175.584C118.131 176.527 115.78 177.072 114.52 176.509C113.525 176.069 112.821 173.577 112.997 172.124V172.142ZM211.298 207.582C210.682 220.5 207.01 227.271 194.745 235.882C182.479 244.494 167.378 257.922 161.135 257.666C154.892 257.922 139.783 244.494 127.526 235.882C115.26 227.271 111.588 220.5 110.972 207.582C110.356 194.665 121.397 184.812 125.685 184.196C129.974 183.58 125.069 190.351 126.302 195.273C127.526 200.195 133.953 199.799 142.556 193.82C150.842 186.212 161.135 186.556 161.135 186.556C161.135 186.556 171.437 186.221 179.714 193.82C188.308 199.799 194.745 200.195 195.968 195.273C197.192 190.351 192.288 183.58 196.585 184.196C200.873 184.812 211.915 194.656 211.298 207.582Z" fill="#2F2F2F"/>
</g>
<path d="M336.668 89.6723C336.668 97.9215 330.61 102.626 321.523 102.626H305.54V56.3532H320.556C329.515 56.3532 334.799 60.6712 334.799 68.2759C334.799 72.8516 331.899 76.7829 327.194 78.523C333.446 80.0697 336.668 84.1299 336.668 89.6723ZM320.299 60.2845H310.052V76.7829H320.299C326.55 76.7829 330.095 73.6895 330.095 68.5337C330.095 63.378 326.55 60.2845 320.299 60.2845ZM321.265 80.7142H310.052V98.6949H321.265C328.032 98.6949 332.028 95.3436 332.028 89.5434C332.028 84.001 328.032 80.7142 321.265 80.7142Z" fill="#2F2F2F"/>
<path d="M367.153 88.8989V68.6626H371.6V102.626H367.411V96.5037C365.671 100.435 361.546 103.271 356.584 103.271C349.688 103.271 345.112 99.3393 345.112 90.7679V68.6626H349.623V89.8012C349.623 96.697 353.039 99.3393 357.808 99.3393C363.222 99.3393 367.153 94.9569 367.153 88.8989Z" fill="#2F2F2F"/>
<path d="M387.236 60.8001C387.236 62.7979 385.754 64.2158 383.562 64.2158C381.436 64.2158 379.953 62.7979 379.953 60.8001C379.953 58.8667 381.436 57.4488 383.562 57.4488C385.754 57.4488 387.236 58.8667 387.236 60.8001ZM385.882 102.626H381.371V68.6626H385.882V102.626Z" fill="#2F2F2F"/>
<path d="M400.169 102.626H395.658V56.3532H400.169V102.626Z" fill="#2F2F2F"/>
<path d="M427.409 98.3082V102.304C425.669 103.013 424.187 103.271 422.511 103.271C416.905 103.271 412.587 100.37 412.587 93.0235V72.465H404.595V68.6626H412.587V58.6089H417.098V68.6626H427.732V72.465H417.098V92.0568C417.098 97.3415 419.676 99.146 423.414 99.146C424.831 99.146 425.992 98.8882 427.409 98.3082Z" fill="#2F2F2F"/>
</g>
<defs>
<clipPath id="clip0_6_80">
<rect width="739.607" height="230.696" fill="white" transform="translate(47.5481 54.5922)"/>
</clipPath>
<clipPath id="clip1_6_80">
<rect width="227.174" height="230.696" fill="white" transform="translate(47.5481 54.5922)"/>
</clipPath>
</defs>
</svg>
